# xmcd
#
# Track frame offsets: 
#        187
#        17794
#        48254
#        65252
#        86252
#        101387
#        123564
#        144064
#
# Disc length: 2214 seconds
#
# Revision: 5
# Processed by: cddbd v1.5.2PL0 Copyright (c) Steve Scherf et al.
# Submitted via: ExactAudioCopy v1.3
#
DISCID=5908a408
DTITLE=Rainbow - Down To Earth (1993 Japan Press POCP-2293)
DYEAR=1979
DGENRE=Hard Rock
TTITLE0=All Night Long
TTITLE1=Eyes Of The World
TTITLE2=No Time To Lose
TTITLE3=Makin' Love
TTITLE4=Since You Been Gone
TTITLE5=Love's No Friend
TTITLE6=Danger Zone
TTITLE7=Lost In Hollywood
EXTD=YEAR: 1979
EXTT0=
EXTT1=
EXTT2=
EXTT3=
EXTT4=
EXTT5=
EXTT6=
EXTT7=
PLAYORDER=
